REM DIRINDEX 1\3,1\2\4,1\2\5,1\2\6
REM DIRNAME folder01,folder02,folder03,folder04,folder05,folder06
TITLE ""
FILE "064.mp3" MP3
  TRACK 01 AUDIO
    TITLE "0:"
    INDEX 01 00:00:00
  TRACK 02 AUDIO
    TITLE "4:cjc137_2612"
    INDEX 01 00:00:03
  TRACK 03 AUDIO
    TITLE "0:"
    INDEX 01 00:01:36
  TRACK 04 AUDIO
    TITLE "6:cjc137_2613"
    INDEX 01 00:01:44
  TRACK 05 AUDIO
    TITLE "0:"
    INDEX 01 00:02:61
  TRACK 06 AUDIO
    TITLE "5:cjc137_2614"
    INDEX 01 00:02:73
  TRACK 07 AUDIO
    TITLE "0:"
    INDEX 01 00:04:27
  TRACK 08 AUDIO
    TITLE "4:cjc137_2615"
    INDEX 01 00:05:36
  TRACK 09 AUDIO
    TITLE "0:"
    INDEX 01 00:06:37
  TRACK 10 AUDIO
    TITLE "6:cjc137_2616"
    INDEX 01 00:06:45
  TRACK 11 AUDIO
    TITLE "0:"
    INDEX 01 00:07:70
  TRACK 12 AUDIO
    TITLE "5:cjc137_2617"
    INDEX 01 00:08:03
  TRACK 13 AUDIO
    TITLE "0:"
    INDEX 01 00:09:04
  TRACK 14 AUDIO
    TITLE "4:cjc137_2618"
    INDEX 01 00:10:14
  TRACK 15 AUDIO
    TITLE "0:"
    INDEX 01 00:11:25
  TRACK 16 AUDIO
    TITLE "6:cjc137_2619"
    INDEX 01 00:11:35
  TRACK 17 AUDIO
    TITLE "0:"
    INDEX 01 00:12:30
  TRACK 18 AUDIO
    TITLE "5:cjc137_2620"
    INDEX 01 00:12:36
  TRACK 19 AUDIO
    TITLE "0:"
    INDEX 01 00:13:51
  TRACK 20 AUDIO
    TITLE "4:cjc137_2621"
    INDEX 01 00:14:56
  TRACK 21 AUDIO
    TITLE "0:"
    INDEX 01 00:15:72
  TRACK 22 AUDIO
    TITLE "6:cjc137_2622"
    INDEX 01 00:16:06
  TRACK 23 AUDIO
    TITLE "0:"
    INDEX 01 00:17:10
  TRACK 24 AUDIO
    TITLE "5:cjc137_2623"
    INDEX 01 00:17:18
  TRACK 25 AUDIO
    TITLE "0:"
    INDEX 01 00:18:33
  TRACK 26 AUDIO
    TITLE "4:cjc137_2624"
    INDEX 01 00:19:42
  TRACK 27 AUDIO
    TITLE "0:"
    INDEX 01 00:20:61
  TRACK 28 AUDIO
    TITLE "6:cjc137_2625"
    INDEX 01 00:20:67
  TRACK 29 AUDIO
    TITLE "0:"
    INDEX 01 00:21:66
  TRACK 30 AUDIO
    TITLE "5:cjc137_2626"
    INDEX 01 00:22:01
  TRACK 31 AUDIO
    TITLE "0:"
    INDEX 01 00:23:18
  TRACK 32 AUDIO
    TITLE "4:cjc137_2627"
    INDEX 01 00:24:27
  TRACK 33 AUDIO
    TITLE "0:"
    INDEX 01 00:25:39
  TRACK 34 AUDIO
    TITLE "6:cjc137_2628"
    INDEX 01 00:25:46
  TRACK 35 AUDIO
    TITLE "0:"
    INDEX 01 00:27:41
  TRACK 36 AUDIO
    TITLE "5:cjc137_2629"
    INDEX 01 00:27:49
  TRACK 37 AUDIO
    TITLE "0:"
    INDEX 01 00:28:62
  TRACK 38 AUDIO
    TITLE "4:cjc137_2630"
    INDEX 01 00:29:68
  TRACK 39 AUDIO
    TITLE "0:"
    INDEX 01 00:31:27
  TRACK 40 AUDIO
    TITLE "6:cjc137_2631"
    INDEX 01 00:31:35
  TRACK 41 AUDIO
    TITLE "0:"
    INDEX 01 00:32:56
  TRACK 42 AUDIO
    TITLE "5:cjc137_2632"
    INDEX 01 00:32:62
  TRACK 43 AUDIO
    TITLE "0:"
    INDEX 01 00:34:20
  TRACK 44 AUDIO
    TITLE "4:cjc137_2633"
    INDEX 01 00:35:31
  TRACK 45 AUDIO
    TITLE "0:"
    INDEX 01 00:36:44
  TRACK 46 AUDIO
    TITLE "6:cjc137_2634"
    INDEX 01 00:36:50
  TRACK 47 AUDIO
    TITLE "0:"
    INDEX 01 00:37:57
  TRACK 48 AUDIO
    TITLE "5:cjc137_2635"
    INDEX 01 00:37:65
  TRACK 49 AUDIO
    TITLE "0:"
    INDEX 01 00:39:03
  TRACK 50 AUDIO
    TITLE "4:cjc137_2636"
    INDEX 01 00:40:09
  TRACK 51 AUDIO
    TITLE "0:"
    INDEX 01 00:41:16
  TRACK 52 AUDIO
    TITLE "6:cjc137_2637"
    INDEX 01 00:41:24
  TRACK 53 AUDIO
    TITLE "0:"
    INDEX 01 00:42:41
  TRACK 54 AUDIO
    TITLE "5:cjc137_2638"
    INDEX 01 00:42:47
  TRACK 55 AUDIO
    TITLE "0:"
    INDEX 01 00:43:54
  TRACK 56 AUDIO
    TITLE "4:cjc137_2639"
    INDEX 01 00:44:61
  TRACK 57 AUDIO
    TITLE "0:"
    INDEX 01 00:45:71
  TRACK 58 AUDIO
    TITLE "6:cjc137_2640"
    INDEX 01 00:46:06
  TRACK 59 AUDIO
    TITLE "0:"
    INDEX 01 00:47:15
  TRACK 60 AUDIO
    TITLE "5:cjc137_2641"
    INDEX 01 00:47:23
  TRACK 61 AUDIO
    TITLE "0:"
    INDEX 01 00:48:34
  TRACK 62 AUDIO
    TITLE "4:cjc137_2642"
    INDEX 01 00:49:43
  TRACK 63 AUDIO
    TITLE "0:"
    INDEX 01 00:50:66
  TRACK 64 AUDIO
    TITLE "6:cjc137_2643"
    INDEX 01 00:50:74
  TRACK 65 AUDIO
    TITLE "0:"
    INDEX 01 00:52:00
  TRACK 66 AUDIO
    TITLE "5:cjc137_2644"
    INDEX 01 00:52:04
  TRACK 67 AUDIO
    TITLE "0:"
    INDEX 01 00:53:29
  TRACK 68 AUDIO
    TITLE "4:cjc137_2645"
    INDEX 01 00:54:36
  TRACK 69 AUDIO
    TITLE "0:"
    INDEX 01 00:55:36
  TRACK 70 AUDIO
    TITLE "6:cjc137_2646"
    INDEX 01 00:55:50
  TRACK 71 AUDIO
    TITLE "0:"
    INDEX 01 00:56:65
  TRACK 72 AUDIO
    TITLE "5:cjc137_2647"
    INDEX 01 00:56:71
  TRACK 73 AUDIO
    TITLE "0:"
    INDEX 01 00:57:72
  TRACK 74 AUDIO
    TITLE "4:cjc137_2648"
    INDEX 01 00:59:10
  TRACK 75 AUDIO
    TITLE "0:"
    INDEX 01 01:00:06
  TRACK 76 AUDIO
    TITLE "6:cjc137_2649"
    INDEX 01 01:00:13
  TRACK 77 AUDIO
    TITLE "0:"
    INDEX 01 01:01:09
  TRACK 78 AUDIO
    TITLE "5:cjc137_2650"
    INDEX 01 01:01:17
  TRACK 79 AUDIO
    TITLE "0:"
    INDEX 01 01:02:14
  TRACK 80 AUDIO
    TITLE "4:cjc137_2651"
    INDEX 01 01:03:20
  TRACK 81 AUDIO
    TITLE "0:"
    INDEX 01 01:04:25
  TRACK 82 AUDIO
    TITLE "6:cjc137_2652"
    INDEX 01 01:04:35
  TRACK 83 AUDIO
    TITLE "0:"
    INDEX 01 01:06:14
  TRACK 84 AUDIO
    TITLE "5:cjc137_2653"
    INDEX 01 01:06:22
  TRACK 85 AUDIO
    TITLE "0:"
    INDEX 01 01:07:27
